<svg width="854" height="964" viewBox="0 0 854 964" fill="none" xmlns="http://www.w3.org/2000/svg">
    <path fill-rule="evenodd" clip-rule="evenodd"
        d="M427 193.937C662.826 193.937 854 160.982 854 120.33V831.883C854 861.13 755.05 886.393 611.712 898.266L502 963.5L348.5 957.5L355.936 904.476C153.935 898.643 0 868.362 0 831.883V120.33C0 160.982 191.174 193.937 427 193.937Z"
        fill="#3578A4" />
    <path fill-rule="evenodd" clip-rule="evenodd"
        d="M553.069 49.9832C727.355 59.2539 854 87.2422 854 120.33C854 160.982 662.826 193.937 427 193.937C191.174 193.937 0 160.982 0 120.33C0 85.2553 142.311 55.9109 332.827 48.5185L407.5 0L572.5 14L553.069 49.9832Z"
        fill="#5DBBFA" />
    <path
        d="M348.414 497.445C34.8813 276.953 407.5 0 407.5 0L572.5 14C572.5 14 188.173 283.237 501.706 503.729C823.965 730.359 502 963.5 502 963.5L348.5 957.5C348.5 957.5 670.673 724.075 348.414 497.445Z"
        fill="#FDFBFB" />
</svg>
